<?xml version="1.0" standalone="no"?>
<!DOCTYPE svg PUBLIC "-//W3C//DTD SVG 20010904//EN"
 "http://www.w3.org/TR/2001/REC-SVG-20010904/DTD/svg10.dtd">
<svg version="1.0" xmlns="http://www.w3.org/2000/svg"
 width="2289.000000pt" height="2289.000000pt" viewBox="0 0 2289.000000 2289.000000"
 preserveAspectRatio="xMidYMid meet">
<metadata>
Created by potrace 1.15, written by Peter Selinger 2001-2017
</metadata>
<g transform="translate(0.000000,2289.000000) scale(0.100000,-0.100000)"
fill="#000000" stroke="none">
<path d="M5162 13320 c-62 -15 -152 -31 -200 -35 -100 -9 -112 -13 -168 -67
-23 -22 -59 -45 -80 -53 -34 -11 -41 -19 -52 -59 -10 -35 -19 -47 -38 -52 -23
-6 -24 -9 -24 -94 l0 -87 173 -27 c94 -15 190 -29 212 -32 22 -3 114 -18 205
-34 91 -15 230 -38 310 -50 80 -12 190 -30 245 -40 55 -10 118 -21 140 -24 80
-12 479 -78 640 -106 61 -11 124 -22 140 -24 17 -3 131 -21 253 -42 184 -30
225 -35 232 -24 13 21 2 30 -36 30 -38 0 -41 5 -18 31 9 10 17 31 17 47 2 24
-8 36 -63 78 -79 61 -118 111 -211 277 -40 71 -80 131 -88 134 -9 3 -83 32
-166 64 -196 76 -251 90 -366 94 -89 2 -97 4 -123 30 -26 26 -31 27 -103 23
-55 -4 -96 0 -147 13 -111 29 -227 38 -370 28 -123 -9 -131 -8 -151 11 -27 25
-26 25 -163 -10z"/>
<path d="M9165 12916 c-12 -6 -57 -43 -102 -82 -44 -40 -96 -78 -115 -84 -22
-8 -42 -25 -53 -47 -11 -19 -49 -61 -85 -93 -37 -33 -80 -78 -96 -102 -16 -24
-44 -59 -64 -79 -62 -63 -102 -119 -88 -123 13 -4 54 -11 288 -46 74 -11 176
-28 227 -37 51 -8 101 -13 113 -10 11 3 22 1 25 -3 5 -9 24 -8 40 1 6 4 24 5
40 3 65 -8 119 -12 97 -8 -45 10 -67 28 -67 54 1 16 6 24 15 22 11 -3 10 1 -3
15 -11 13 -13 23 -6 30 7 7 4 14 -8 24 -17 13 -17 13 -3 -6 11 -15 7 -14 -13
4 -15 14 -27 27 -27 30 0 3 5 0 11 -6 6 -6 19 -8 30 -6 15 4 17 8 8 19 -6 8
-8 14 -5 14 4 0 1 6 -6 14 -7 8 -16 12 -20 9 -7 -4 -12 20 -9 40 0 4 -5 6 -11
5 -7 -2 -12 3 -10 10 1 6 -2 11 -7 10 -5 -2 -9 1 -9 5 -1 5 -9 16 -20 25 -16
14 -17 19 -6 30 16 14 28 16 19 2 -3 -5 2 -10 12 -10 16 0 16 1 1 16 -15 15
-15 18 2 37 19 20 18 43 -1 31 -5 -3 -7 -9 -4 -14 3 -5 1 -11 -4 -14 -5 -3 -7
8 -6 24 1 17 -4 35 -13 42 -9 7 -13 8 -9 2 3 -6 0 -11 -8 -11 -8 0 -13 5 -12
11 1 6 -3 10 -10 9 -6 -1 -10 4 -9 12 3 23 12 27 26 10 15 -18 41 -20 38 -2
-2 6 -11 19 -20 28 -25 23 -23 26 13 21 22 -3 30 -1 25 7 -4 6 -11 9 -16 6 -4
-3 -6 8 -4 23 5 32 -12 52 -45 55 -11 0 -19 6 -18 12 1 5 -3 9 -8 8 -6 -1 -12
7 -12 18 -2 17 7 23 29 20 7 0 5 26 -3 32 -2 2 -13 -1 -24 -7z"/>
<path d="M4590 12786 c0 0 -9 -47 -20 -104 -11 -56 -20 -107 -20 -112 0 -5 21
-39 47 -77 39 -55 47 -76 47 -110 l-1 -42 65 -7 c78 -8 187 0 347 27 179 30
344 36 436 16 41 -9 158 -24 261 -32 286 -23 420 -54 528 -121 88 -54 100 -68
100 -109 0 -21 10 -53 21 -72 20 -32 21 -40 11 -84 -7 -27 -32 -96 -57 -153
-25 -57 -51 -130 -58 -162 l-14 -59 -74 -19 c-42 -10 -118 -19 -174 -21 -79
-1 -115 -8 -174 -29 -44 -16 -114 -31 -170 -36 -53 -6 -169 -17 -259 -26 -333
-32 -466 -102 -552 -292 l-24 -53 23 -15 22 -16 -26 -23 c-29 -28 -30 -40 -10
-115 8 -30 13 -54 12 -55 -1 0 -11 -5 -22 -11 -34 -19 -28 -40 22 -78 27 -20
62 -60 78 -89 19 -32 42 -57 60 -65 65 -28 79 -38 85 -62 6 -25 8 -25 121 -28
75 -2 164 4 254 17 77 11 142 18 144 16 2 -3 -15 -43 -38 -90 -111 -229 -184
-473 -197 -663 l-7 -87 34 -16 c19 -9 41 -28 48 -43 13 -23 12 -28 -3 -45 -14
-16 -16 -28 -9 -77 l8 -59 150 -1 c109 0 166 -5 208 -17 65 -19 119 -12 168
24 33 23 80 112 124 234 45 123 57 147 95 178 35 30 36 38 13 77 -16 28 -16
29 18 68 19 22 77 111 129 197 60 100 116 178 151 214 42 42 58 65 62 94 8 48
46 100 121 163 l61 50 220 38 c121 21 302 51 403 67 182 30 183 30 220 67 39
37 162 127 162 118 0 -3 -13 -54 -29 -113 -57 -214 -65 -279 -65 -528 1 -224
2 -232 27 -298 70 -181 178 -357 294 -478 130 -136 263 -217 428 -259 65 -17
107 -21 220 -19 89 1 177 -5 240 -15 55 -9 121 -16 146 -16 75 0 216 28 328
66 70 23 129 36 180 39 141 8 362 83 523 178 48 28 108 52 177 70 57 16 123
37 145 49 23 11 100 78 171 148 128 124 245 220 270 220 37 0 135 155 168 265
8 28 16 53 18 57 2 4 -18 30 -46 58 -27 27 -45 50 -41 50 5 0 3 6 -3 14 -7 8
-23 12 -40 10 -17 -3 -33 1 -41 11 -7 8 -17 12 -23 8 -6 -3 -7 -1 -3 5 4 7 0
12 -11 13 -10 0 -13 3 -6 6 29 11 -91 96 -129 92 -13 -2 -29 1 -37 5 -10 7
-12 5 -6 -5 4 -8 -5 -2 -22 14 -16 15 -39 27 -50 27 -17 0 -21 5 -18 21 4 17
2 19 -11 8 -8 -6 -17 -9 -21 -5 -3 3 -2 6 4 6 5 0 10 7 10 15 0 11 -4 12 -13
4 -10 -8 -12 -6 -9 10 2 14 -1 21 -11 21 -8 0 -13 6 -11 13 1 6 -3 11 -10 10
-7 -2 -10 6 -8 18 4 18 2 19 -12 7 -10 -7 -14 -8 -10 -1 4 6 1 18 -7 26 -8 8
-12 17 -9 21 4 3 -1 6 -10 6 -10 0 -17 5 -17 10 0 6 -12 10 -27 10 -32 1 -78
34 -68 50 4 6 3 9 -2 8 -4 -2 -10 2 -12 7 -5 13 -31 31 -56 39 -18 5 -20 1
-21 -47 0 -41 -9 -71 -45 -141 l-44 -89 -195 -129 c-231 -155 -304 -189 -442
-213 -22 -3 -39 -12 -42 -23 -5 -14 -30 -21 -118 -34 -62 -10 -165 -27 -228
-39 -241 -44 -428 -22 -523 61 -39 34 -43 42 -40 77 18 212 58 319 243 656 23
43 57 113 74 155 25 60 37 77 56 82 17 4 45 35 87 95 34 50 108 140 164 200
57 61 89 97 71 81 -31 -29 -32 -29 -89 -17 -32 7 -116 27 -188 46 -145 37
-282 67 -290 65 -3 -1 -16 4 -28 12 -12 7 -56 24 -97 37 -122 39 -244 83 -255
92 -22 17 -270 -371 -377 -591 -33 -69 -62 -127 -64 -129 -2 -2 -9 1 -16 7 -7
5 -24 12 -38 14 -43 6 -37 40 15 77 75 53 75 63 6 117 -57 44 -91 92 -91 128
0 14 -22 16 -187 16 -124 0 -215 5 -268 15 -140 26 -125 10 -125 133 0 59 9
175 20 257 11 83 20 160 20 172 0 23 -23 29 -365 103 -77 16 -187 41 -245 54
-58 13 -123 27 -145 30 -22 4 -119 25 -215 47 -96 22 -204 46 -240 54 -553
120 -942 206 -1060 234 -138 33 -300 70 -300 67z"/>
<path d="M11425 10200 c2 -21 -2 -30 -12 -30 -8 0 -11 5 -8 10 10 17 -7 11
-22 -7 -8 -10 -12 -13 -9 -6 4 6 2 14 -3 17 -12 8 -9 -25 19 -194 22 -129 24
-136 56 -163 18 -15 47 -57 64 -92 63 -131 211 -217 464 -267 95 -19 144 -22
343 -23 179 0 235 3 245 13 11 11 10 13 -2 10 -8 -2 -14 3 -13 9 2 7 -2 12 -8
10 -6 -1 -16 7 -22 17 -7 11 -22 31 -35 44 -12 13 -19 29 -15 35 4 7 -2 5 -12
-3 -11 -9 -16 -10 -11 -2 4 7 1 12 -9 12 -9 0 -14 -4 -10 -9 3 -5 1 -12 -3
-15 -5 -3 -23 10 -41 28 -24 24 -29 36 -20 41 8 6 10 4 4 -5 -6 -9 -4 -11 5
-5 8 5 11 4 7 -2 -4 -6 3 -19 16 -29 22 -19 22 -19 4 2 -9 11 -15 23 -12 26 3
3 -5 13 -17 24 -12 10 -18 13 -13 5 6 -11 3 -13 -13 -9 -12 4 -22 2 -22 -3 0
-5 -4 -9 -9 -9 -6 0 -8 9 -6 21 3 17 2 19 -10 9 -12 -10 -13 -8 -10 10 3 18 2
20 -10 10 -12 -10 -13 -8 -10 10 3 18 0 21 -23 20 -45 -3 -59 -1 -45 8 16 10
-24 62 -52 66 -11 2 -19 6 -17 10 5 12 -47 56 -66 56 -10 0 -24 6 -31 13 -11
10 -12 9 -6 -3 6 -10 2 -9 -12 3 -12 10 -32 17 -45 16 -13 -2 -29 1 -37 5 -9
6 -12 5 -7 -2 7 -12 -20 -10 -31 3 -4 4 -2 5 6 0 9 -5 12 -4 7 3 -4 7 -16 12
-27 12 -12 0 -19 7 -19 20 0 15 -7 20 -24 20 -14 0 -28 5 -31 10 -4 6 -10 8
-14 6 -4 -3 -20 8 -35 23 -20 21 -24 31 -15 36 8 6 10 4 4 -5 -6 -9 -4 -11 5
-5 9 6 11 4 5 -5 -6 -9 -4 -11 4 -5 9 5 4 17 -20 41 -18 18 -36 31 -40 29 -4
-3 -15 2 -23 11 -9 8 -16 11 -16 5 0 -6 -5 -11 -11 -11 -5 0 -7 5 -4 10 3 6 1
10 -5 10 -19 0 -42 29 -36 45 3 8 0 14 -7 12 -7 -1 -11 4 -9 11 1 6 -2 12 -8
12 -5 0 -10 -9 -10 -19 0 -19 -22 -23 -37 -6 -5 4 -1 5 7 0 9 -5 12 -5 7 1 -5
5 -12 9 -15 9 -30 3 -49 18 -45 35 4 14 0 20 -11 21 -24 2 -30 4 -42 11 -8 5
-11 -2 -9 -22z"/>
</g>
</svg>
