 <svg version="1.0" xmlns="http://www.w3.org/2000/svg" width="700.000000pt" height="700.000000pt" viewBox="0 0 700.000000 700.000000" preserveAspectRatio="xMidYMid meet">
<metadata>
Created by potrace 1.12, written by Peter Selinger 2001-2015
</metadata>
<g transform="translate(0.000000,700.000000) scale(0.100000,-0.100000)" fill="#000000" stroke="none">
<path d="M2973 4106 c-15 -20 -37 -36 -48 -36 -13 0 -39 -22 -67 -55 -25 -30
-66 -71 -90 -91 -24 -20 -80 -74 -125 -121 -80 -81 -104 -117 -63 -91 16 10
40 9 127 -6 59 -10 135 -25 170 -33 57 -14 65 -14 87 0 24 16 25 15 45 -11 14
-19 23 -24 30 -16 8 7 3 18 -18 38 -27 26 -32 27 -63 17 -26 -9 -53 -8 -119 4
-46 8 -103 18 -126 21 -82 13 -78 22 73 173 77 76 153 146 170 154 17 9 34 23
37 32 4 9 18 15 35 15 24 0 40 -13 86 -67 58 -69 66 -95 47 -146 -6 -16 -6
-39 1 -64 12 -44 68 -147 76 -139 3 3 -7 36 -22 73 -15 38 -31 77 -35 87 -4
11 0 34 11 56 17 33 17 40 4 71 -8 19 -33 52 -55 74 -23 21 -41 45 -41 52 0
15 -24 28 -67 37 -28 6 -34 3 -60 -28z"></path>
<path d="M1565 4070 c-11 -5 -34 -9 -51 -9 -44 -1 -104 -59 -104 -100 0 -18
-5 -52 -11 -77 -10 -37 -9 -48 3 -62 8 -9 18 -25 21 -34 7 -21 38 -23 135 -8
52 8 96 7 191 -5 195 -24 232 -54 196 -162 -27 -79 -17 -75 -235 -102 -47 -6
-104 -16 -128 -22 -47 -13 -91 -57 -93 -92 -1 -12 -2 -37 -4 -56 -2 -28 4 -40
38 -73 41 -39 42 -40 112 -38 91 3 88 4 71 -22 -15 -25 -51 -135 -60 -185 -3
-21 0 -35 10 -44 8 -7 14 -24 12 -38 -3 -25 -1 -26 70 -34 54 -6 78 -5 89 5
16 13 73 127 73 146 0 7 21 44 48 83 26 40 52 82 59 93 29 52 55 64 183 86 93
16 131 27 147 42 30 28 38 18 22 -29 -7 -21 -13 -81 -14 -133 0 -85 3 -101 28
-148 39 -74 90 -127 150 -156 69 -32 238 -44 324 -23 32 8 79 20 104 25 25 6
75 25 111 41 37 17 73 31 82 31 9 0 39 21 68 48 29 26 68 58 86 70 40 29 60
66 73 140 10 49 8 67 -12 139 -24 85 -46 113 -35 46 15 -92 18 -192 7 -226
-17 -49 -155 -164 -236 -196 -190 -74 -282 -94 -404 -86 -122 8 -169 25 -220
80 -64 70 -85 119 -85 200 1 157 8 230 26 243 10 7 34 44 54 83 42 80 88 134
107 126 7 -3 48 -11 90 -17 105 -17 110 -27 55 -94 -61 -74 -137 -228 -144
-291 -6 -46 -4 -52 26 -80 30 -29 35 -30 118 -29 115 0 222 32 318 95 113 74
132 138 78 261 -31 70 -42 88 -56 88 -11 0 -3 -28 27 -95 51 -112 39 -155 -64
-224 -95 -65 -281 -112 -358 -92 -22 6 -46 17 -52 25 -31 37 52 221 156 348
35 43 63 80 63 83 0 3 -11 5 -24 5 -37 0 -230 41 -241 51 -5 5 -14 9 -21 9
-13 0 -106 -138 -128 -192 -9 -20 -20 -39 -25 -42 -17 -11 -23 15 -8 32 14 15
13 20 -8 45 -21 23 -32 27 -82 28 -112 2 -108 -4 -109 139 -2 158 -3 164 -37
190 -15 12 -38 43 -51 68 -22 42 -30 49 -88 70 -34 12 -80 22 -100 22 -20 0
-39 4 -42 9 -4 5 -45 12 -94 15 -48 4 -109 8 -137 11 -27 2 -59 0 -70 -5z
m240 -46 c55 -8 130 -24 166 -34 62 -18 68 -23 103 -76 21 -31 35 -58 33 -60
-3 -3 -87 11 -188 30 -101 18 -242 44 -314 57 -71 12 -134 26 -140 31 -16 14
26 46 75 56 64 14 149 12 265 -4z m-182 -109 c67 -13 208 -40 312 -60 228 -43
237 -46 233 -83 -2 -17 -8 -26 -18 -25 -16 2 -658 129 -697 138 -22 5 -31 33
-16 48 12 12 62 7 186 -18z m-80 -71 c31 -9 18 -22 -29 -29 -35 -5 -50 -3 -62
8 -33 34 12 44 91 21z m509 -105 c89 -18 97 -27 91 -101 -7 -90 10 -110 103
-116 79 -5 94 -13 94 -53 0 -15 5 -31 10 -34 33 -20 -53 -58 -180 -80 -118
-19 -151 -36 -189 -92 -14 -22 -43 -66 -64 -97 -21 -32 -52 -90 -69 -129 -40
-96 -44 -100 -87 -92 -74 13 -87 64 -45 180 38 104 38 104 19 125 -15 16 -31
20 -85 20 -87 0 -120 22 -120 81 0 79 32 102 161 118 245 29 254 34 289 134
17 47 19 65 11 94 -9 32 -7 53 4 53 2 0 28 -5 57 -11z"></path>
<path d="M5070 4033 c-75 -108 -132 -153 -194 -153 -23 0 -42 -7 -55 -21 -23
-25 -141 -246 -141 -265 0 -8 -27 -69 -61 -135 -55 -112 -65 -140 -41 -125 5
3 35 63 66 133 78 172 165 343 188 369 11 12 36 24 59 27 55 7 110 48 170 125
53 67 61 70 122 47 9 -4 17 -3 17 2 0 6 -17 15 -37 22 -21 7 -43 14 -49 17 -6
2 -25 -17 -44 -43z"></path>
<path d="M4280 4060 c0 -5 16 -10 35 -10 19 0 35 5 35 10 0 6 -16 10 -35 10
-19 0 -35 -4 -35 -10z"></path>
<path d="M4370 4060 c0 -5 6 -10 13 -10 22 0 107 -81 107 -102 0 -11 -17 -37
-38 -58 -41 -41 -81 -56 -234 -84 -47 -9 -107 -25 -133 -36 -26 -11 -57 -20
-69 -20 -39 0 -117 -28 -132 -47 -16 -21 -19 -63 -4 -63 6 0 10 11 10 25 0 31
35 50 109 60 29 4 72 15 95 25 22 11 82 26 131 35 155 29 193 43 241 87 38 35
44 46 44 80 0 35 -4 41 -32 53 -18 7 -44 25 -57 39 -25 26 -51 34 -51 16z"></path>
<path d="M4095 4040 c-60 -9 -148 -27 -195 -40 -47 -12 -113 -29 -147 -36 -74
-16 -123 -35 -164 -65 -29 -20 -30 -24 -24 -73 10 -81 36 -164 56 -182 23 -20
24 -9 5 37 -20 47 -38 156 -31 180 4 10 25 29 48 41 70 36 412 118 551 133 36
4 66 11 66 16 0 12 -36 10 -165 -11z"></path>
<path d="M5220 4033 c0 -4 15 -15 33 -23 40 -19 55 -50 63 -129 7 -61 24 -86
24 -33 -1 66 -26 145 -50 163 -30 21 -70 34 -70 22z"></path>
<path d="M5335 3763 c7 -40 12 -49 20 -42 8 9 -7 79 -17 79 -6 0 -7 -15 -3
-37z"></path>
<path d="M5350 3685 c0 -8 5 -15 10 -15 6 0 10 7 10 15 0 8 -4 15 -10 15 -5 0
-10 -7 -10 -15z"></path>
<path d="M5028 3623 c-40 -45 -88 -123 -74 -123 3 0 64 77 104 132 21 28 -2
21 -30 -9z"></path>
<path d="M5360 3635 c0 -8 5 -15 10 -15 6 0 10 7 10 15 0 8 -4 15 -10 15 -5 0
-10 -7 -10 -15z"></path>
<path d="M4003 3633 c-67 -3 -103 -8 -103 -15 0 -8 40 -9 138 -6 l137 6 65
-60 c73 -67 73 -78 2 -113 -44 -22 -53 -35 -24 -35 22 0 100 54 108 75 7 18
-13 55 -30 55 -8 0 -34 23 -59 50 -42 47 -48 50 -89 48 -23 -1 -89 -4 -145 -5z"></path>
<path d="M5104 3618 c3 -13 13 -56 23 -95 9 -40 20 -73 25 -73 11 0 11 0 -13
101 -11 49 -25 89 -31 89 -6 0 -8 -10 -4 -22z"></path>
<path d="M3626 3594 c-11 -28 -6 -39 9 -20 8 11 15 23 15 28 0 14 -18 9 -24
-8z"></path>
<path d="M5370 3590 c0 -5 5 -10 10 -10 6 0 10 5 10 10 0 6 -4 10 -10 10 -5 0
-10 -4 -10 -10z"></path>
<path d="M5485 3480 c3 -5 10 -10 16 -10 5 0 9 5 9 10 0 6 -7 10 -16 10 -8 0
-12 -4 -9 -10z"></path>
<path d="M5530 3453 c0 -5 14 -16 30 -25 43 -25 38 -49 -25 -106 -61 -56 -69
-70 -27 -48 34 18 112 100 112 119 0 8 -17 26 -38 41 -39 27 -52 31 -52 19z"></path>
<path d="M3548 3423 c-7 -16 -19 -36 -27 -46 -8 -10 -20 -32 -27 -50 -6 -18
-18 -46 -25 -64 -11 -26 -11 -49 0 -125 29 -211 94 -257 350 -244 75 4 150 8
166 8 57 2 220 29 266 44 57 18 102 51 139 100 l28 38 -19 38 c-11 21 -25 38
-32 38 -6 0 -26 16 -42 36 l-30 36 -83 -16 c-46 -9 -91 -20 -100 -25 -27 -15
-368 -26 -376 -13 -7 13 34 100 69 148 22 29 26 30 72 25 61 -8 243 -2 243 7
0 4 -44 14 -97 23 -81 13 -106 14 -157 3 -66 -14 -76 -23 -126 -115 -37 -69
-38 -94 -4 -115 21 -15 41 -16 137 -10 147 10 225 20 323 42 l81 18 47 -40
c56 -47 65 -73 38 -112 -61 -85 -259 -127 -592 -127 -109 1 -130 3 -166 23
-56 29 -82 74 -100 173 -19 97 -15 126 21 200 38 77 56 129 44 129 -5 0 -15
-12 -21 -27z"></path>
<path d="M5090 3410 c0 -5 7 -10 15 -10 8 0 15 5 15 10 0 6 -7 10 -15 10 -8 0
-15 -4 -15 -10z"></path>
<path d="M5010 3400 c0 -5 7 -10 15 -10 8 0 15 5 15 10 0 6 -7 10 -15 10 -8 0
-15 -4 -15 -10z"></path>
<path d="M4521 3258 c-5 -13 -20 -49 -35 -81 -34 -78 -47 -128 -37 -141 5 -6
14 -29 20 -51 15 -55 70 -99 115 -92 48 8 125 63 131 95 13 64 47 161 60 172
8 7 15 20 15 30 0 10 7 21 16 24 8 3 12 11 8 18 -16 25 -82 -89 -111 -192 -14
-53 -23 -66 -59 -91 -24 -16 -53 -29 -66 -29 -31 0 -72 43 -93 98 -17 41 -17
45 5 105 12 34 33 82 46 106 28 51 28 51 9 51 -9 0 -19 -10 -24 -22z"></path>
<path d="M5470 3215 c0 -8 5 -15 10 -15 6 0 10 7 10 15 0 8 -4 15 -10 15 -5 0
-10 -7 -10 -15z"></path>
<path d="M4850 3213 c0 -4 12 -20 27 -35 25 -26 32 -28 102 -28 42 0 86 3 99
6 46 13 19 19 -70 16 -89 -4 -94 -3 -117 22 -24 25 -41 33 -41 19z"></path>
<path d="M5191 3093 c-19 -12 -42 -23 -52 -23 -33 0 -31 -22 5 -59 22 -23 36
-47 36 -62 0 -20 9 -30 43 -47 41 -21 47 -21 93 -7 27 8 66 29 87 46 59 48
121 169 87 169 -5 0 -10 -8 -10 -18 0 -29 -68 -120 -110 -148 -21 -14 -57 -28
-80 -31 -33 -5 -45 -2 -65 17 -14 13 -25 29 -25 36 0 7 -12 27 -27 45 -26 31
-27 33 -9 43 31 18 71 54 66 59 -3 2 -20 -7 -39 -20z"></path>
</g>
</svg>